<svg width="18px" height="18px" viewBox="0 0 18 18" version="1.1" xmlns="http://www.w3.org/2000/svg"
     xmlns:xlink="http://www.w3.org/1999/xlink">
    <g id="BitDust" stroke="none" stroke-width="1" fill="none" fill-rule="evenodd">
        <g id="Users" transform="translate(-709.000000, -439.000000)" fill="#000000" fill-rule="nonzero">
            <g id="noun_806144_cc" transform="translate(710.000000, 440.000000)">
                <g id="Group">
                    <path
                        d="M1.72467532,12.6974359 L0.581818182,15.3641026 C0.519480519,15.5076923 0.54025974,15.6717949 0.644155844,15.774359 C0.727272727,15.8769231 0.851948052,15.9384615 0.976623377,15.9384615 C0.997402597,15.9384615 1.01818182,15.9384615 1.03896104,15.9384615 L5.27792208,15.2 C6.12987013,15.5076923 7.02337662,15.6512821 7.91688312,15.6512821 C12.2805195,15.6512821 15.812987,12.1641026 15.812987,7.85641026 C15.812987,3.54871795 12.2805195,0.0615384615 7.91688312,0.0615384615 C3.55324675,0.0615384615 0.0207792208,3.54871795 0.0207792208,7.85641026 C0.0207792208,8.84102564 0.207792208,9.78461538 0.561038961,10.6871795 C0.831168831,11.4051282 1.22597403,12.0820513 1.72467532,12.6974359 Z M7.8961039,0.882051282 C11.7818182,0.882051282 14.961039,4.02051282 14.961039,7.85641026 C14.961039,11.6923077 11.7818182,14.8307692 7.8961039,14.8307692 C7.06493506,14.8307692 6.23376623,14.6871795 5.44415584,14.4 C5.38181818,14.3794872 5.2987013,14.3589744 5.23636364,14.3794872 L1.64155844,14.9948718 L2.5974026,12.8 C2.65974026,12.6564103 2.63896104,12.4923077 2.53506494,12.3692308 C2.01558442,11.774359 1.62077922,11.0974359 1.32987013,10.4 C1.01818182,9.6 0.851948052,8.73846154 0.851948052,7.85641026 C0.831168831,4 4.01038961,0.882051282 7.8961039,0.882051282 Z"
                        id="Shape" stroke="#000000" stroke-width="0.9"></path>
                    <ellipse id="Oval" cx="5.09090909" cy="8" rx="1" ry="1"></ellipse>
                    <ellipse id="Oval" cx="7.8961039" cy="8" rx="1" ry="1"></ellipse>
                    <ellipse id="Oval" cx="10.7012987" cy="8" rx="1" ry="1"></ellipse>
                </g>
            </g>
        </g>
    </g>
</svg>
